<?xml version="1.0" standalone="no"?>
<!DOCTYPE svg PUBLIC "-//W3C//DTD SVG 20010904//EN"
 "http://www.w3.org/TR/2001/REC-SVG-20010904/DTD/svg10.dtd">
<svg version="1.0" xmlns="http://www.w3.org/2000/svg"
 width="205.000000pt" height="45.000000pt" viewBox="0 0 205.000000 45.000000"
 preserveAspectRatio="xMidYMid meet">
<metadata>
Created by potrace 1.10, written by Peter Selinger 2001-2011
</metadata>
<g transform="translate(0.000000,45.000000) scale(0.100000,-0.100000)"
fill="#000000" stroke="none">
<path d="M65 330 c3 -5 13 -10 21 -10 11 0 14 -20 14 -100 0 -80 -3 -100 -14
-100 -8 0 -18 -4 -21 -10 -4 -6 28 -10 89 -10 l96 0 0 30 c0 34 -15 40 -23 10
-4 -16 -14 -20 -51 -20 l-46 0 0 51 0 51 45 -6 c38 -6 45 -5 45 10 0 14 -7 15
-45 10 l-45 -7 0 45 0 46 41 0 c32 0 42 -4 46 -20 8 -30 23 -24 23 10 l0 30
-91 0 c-57 0 -88 -4 -84 -10z"/>
<path d="M327 320 c-55 -43 -60 -140 -11 -192 23 -23 36 -28 75 -28 68 0 79 6
79 47 0 22 7 41 18 49 15 12 11 13 -30 14 -47 0 -63 -12 -33 -24 9 -3 15 -18
15 -36 0 -28 -2 -30 -39 -30 -31 0 -44 6 -60 26 -33 42 -26 141 13 166 6 4 26
8 44 8 26 0 35 -5 39 -20 6 -24 21 -26 29 -5 18 45 -89 64 -139 25z"/>
<path d="M515 330 c3 -5 13 -10 21 -10 11 0 14 -19 14 -96 0 -87 -2 -96 -20
-101 -39 -10 -19 -23 36 -23 34 0 53 4 49 10 -3 6 -13 10 -21 10 -10 0 -14 13
-14 50 l0 50 55 0 55 0 0 -50 c0 -38 -4 -50 -15 -50 -8 0 -15 -4 -15 -10 0 -5
24 -10 53 -9 50 0 51 1 30 16 -21 14 -23 24 -23 103 0 79 2 89 23 103 21 15
20 16 -30 16 -29 1 -53 -3 -53 -9 0 -5 7 -10 15 -10 11 0 15 -12 15 -45 l0
-45 -55 0 -55 0 0 45 c0 33 4 45 14 45 8 0 18 5 21 10 4 6 -15 10 -50 10 -35
0 -54 -4 -50 -10z"/>
<path d="M770 310 c0 -34 15 -40 25 -10 4 13 15 20 31 20 24 0 24 -1 24 -99 0
-93 -1 -99 -22 -106 -21 -7 -20 -8 10 -12 17 -2 47 -2 65 0 29 4 30 5 10 12
-22 7 -23 13 -23 106 0 98 0 99 24 99 16 0 27 -7 31 -20 10 -30 25 -24 25 10
l0 30 -100 0 -100 0 0 -30z"/>
<path d="M990 330 c0 -5 7 -10 15 -10 12 0 15 -18 15 -100 0 -80 -3 -100 -14
-100 -8 0 -18 -4 -21 -10 -4 -6 28 -10 89 -10 l96 0 0 30 c0 34 -15 40 -23 10
-4 -16 -14 -20 -51 -20 l-46 0 0 51 0 51 42 -4 c27 -2 43 1 46 10 3 10 -7 11
-42 7 l-46 -7 0 46 0 46 41 0 c32 0 42 -4 46 -20 8 -30 23 -24 23 10 l0 30
-85 0 c-50 0 -85 -4 -85 -10z"/>
<path d="M1208 323 c20 -14 22 -24 22 -103 0 -79 -2 -89 -22 -103 -22 -15 -19
-16 55 -16 73 -1 81 1 107 27 38 39 48 99 23 149 -24 50 -53 63 -138 62 -67 0
-69 -1 -47 -16z m133 -22 c21 -16 24 -28 24 -81 0 -53 -3 -65 -24 -81 -13 -10
-36 -19 -52 -19 l-29 0 0 100 0 100 29 0 c16 0 39 -9 52 -19z"/>
<path d="M1495 238 c-21 -58 -46 -110 -59 -120 -21 -17 -20 -18 27 -18 26 0
47 5 47 10 0 6 -7 10 -16 10 -12 0 -15 6 -10 23 3 12 6 25 6 30 0 4 22 7 49 7
42 0 49 -3 55 -22 9 -34 8 -38 -9 -38 -8 0 -15 -4 -15 -10 0 -6 42 -10 106
-10 67 0 103 4 99 10 -3 6 -13 10 -21 10 -10 0 -14 12 -14 45 0 60 18 58 55
-5 16 -28 39 -53 50 -56 35 -9 164 1 138 10 -22 8 -23 14 -23 107 0 80 3 99
14 99 8 0 18 5 21 10 4 6 -16 10 -52 9 -56 0 -57 -1 -35 -16 20 -14 22 -23 22
-104 0 -77 -2 -90 -19 -99 -27 -14 -45 -4 -75 41 -31 46 -31 50 -6 72 12 10
20 29 20 46 0 45 -31 61 -115 60 -67 0 -69 -1 -47 -16 20 -14 22 -23 22 -104
0 -78 -2 -90 -20 -99 -35 -19 -53 4 -91 112 -22 61 -43 104 -52 106 -10 2 -25
-26 -52 -100z m317 57 c15 -33 -12 -75 -47 -75 -23 0 -25 3 -25 50 0 49 1 50
30 50 23 0 33 -6 42 -25z m-251 -50 l17 -45 -38 0 -38 0 17 45 c9 25 18 45 21
45 3 0 12 -20 21 -45z"/>
</g>
</svg>
