<?xml version="1.0" standalone="no"?>
<!DOCTYPE svg PUBLIC "-//W3C//DTD SVG 20010904//EN"
 "http://www.w3.org/TR/2001/REC-SVG-20010904/DTD/svg10.dtd">
<svg version="1.0" xmlns="http://www.w3.org/2000/svg"
 width="200.000000pt" height="200.000000pt" viewBox="0 0 200.000000 200.000000"
 preserveAspectRatio="xMidYMid meet">

<g transform="translate(0.000000,200.000000) scale(0.100000,-0.100000)"
fill="#000000" stroke="none">
<path d="M814 1267 c-2 -7 -3 -69 -2 -138 l3 -124 78 -3 77 -3 0 -29 c0 -17 4
-30 8 -30 5 0 7 14 4 30 l-4 30 104 0 c68 0 108 4 116 12 17 17 17 239 0 256
-18 18 -377 17 -384 -1z m381 -127 l0 -125 -187 -3 -188 -2 0 130 0 130 188
-2 187 -3 0 -125z"/>
<path d="M1006 1144 c-15 -36 -25 -68 -23 -70 2 -2 16 26 30 63 15 37 25 68
23 70 -2 2 -16 -26 -30 -63z"/>
<path d="M925 1180 c-3 -6 1 -7 9 -4 18 7 21 14 7 14 -6 0 -13 -4 -16 -10z"/>
<path d="M1104 1166 c10 -9 24 -18 30 -21 8 -4 8 -6 0 -10 -6 -3 -20 -12 -30
-21 -14 -11 -9 -10 19 3 20 9 37 20 37 23 0 3 -17 14 -37 23 -28 13 -33 14
-19 3z"/>
<path d="M883 1158 c-30 -14 -29 -22 5 -37 25 -10 26 -10 8 4 -20 15 -20 15 0
30 22 17 18 18 -13 3z"/>
<path d="M927 1099 c7 -7 15 -10 18 -7 3 3 -2 9 -12 12 -14 6 -15 5 -6 -5z"/>
<path d="M448 785 l4 -65 46 2 47 1 -42 4 c-38 4 -43 7 -43 30 0 23 3 25 35
21 21 -2 35 0 35 7 0 7 -14 9 -35 7 -33 -4 -35 -3 -35 27 0 17 -3 31 -7 31 -5
0 -6 -29 -5 -65z"/>
<path d="M582 838 c-5 -7 -12 -24 -16 -38 -5 -22 -4 -22 7 3 8 16 20 33 28 38
8 5 9 9 3 9 -6 0 -16 -6 -22 -12z"/>
<path d="M656 835 c4 -8 8 -15 10 -15 2 0 4 7 4 15 0 8 -4 15 -10 15 -5 0 -7
-7 -4 -15z"/>
<path d="M713 785 c0 -38 2 -55 4 -37 4 31 6 32 49 32 42 0 44 -1 44 -30 0
-16 3 -30 8 -30 4 0 5 29 4 65 -2 36 -7 65 -11 65 -4 0 -7 -12 -6 -27 0 -26
-3 -28 -40 -28 -36 0 -40 3 -46 30 -4 19 -6 4 -6 -40z"/>
<path d="M840 839 c0 -5 5 -7 10 -4 6 3 10 8 10 11 0 2 -4 4 -10 4 -5 0 -10
-5 -10 -11z"/>
<path d="M898 803 c5 -83 9 -90 11 -20 0 37 -2 67 -7 67 -4 0 -6 -21 -4 -47z"/>
<path d="M990 785 l0 -65 48 2 47 1 -42 4 c-38 4 -43 7 -43 29 0 21 5 24 35
24 19 0 35 4 35 8 0 4 -16 6 -36 4 -36 -4 -37 -4 -32 27 2 17 1 31 -4 31 -4 0
-8 -29 -8 -65z"/>
<path d="M1118 785 l4 -65 31 1 c31 2 31 2 5 6 -27 4 -28 7 -28 64 0 32 -3 59
-7 59 -5 0 -6 -29 -5 -65z"/>
<path d="M1187 840 c31 -12 39 -53 19 -88 l-17 -27 20 24 c12 13 21 31 21 40
0 25 -29 61 -48 60 -13 0 -11 -3 5 -9z"/>
<path d="M1270 793 c-27 -62 -37 -91 -19 -55 17 31 94 33 104 1 4 -11 9 -18
12 -16 6 7 -55 127 -65 127 -4 0 -18 -26 -32 -57z m55 7 l16 -30 -31 0 c-32 0
-36 9 -20 41 14 25 17 24 35 -11z"/>
<path d="M1399 783 c3 -38 7 -56 9 -40 3 22 8 27 31 27 20 0 31 -7 40 -26 6
-15 14 -24 18 -21 3 4 0 13 -7 22 -10 12 -10 21 0 45 10 24 10 33 0 45 -7 8
-17 15 -23 15 -6 0 -2 -6 9 -14 26 -20 8 -50 -35 -54 -30 -3 -31 -2 -31 32 0
20 -3 36 -7 36 -5 0 -6 -30 -4 -67z"/>
<path d="M1539 794 c2 -40 -1 -59 -10 -65 -11 -7 -9 -9 6 -9 18 0 20 5 17 65
-2 36 -7 65 -10 65 -4 0 -5 -25 -3 -56z"/>
<path d="M648 780 c26 -11 29 -35 6 -44 -30 -11 -53 -6 -68 16 -9 12 -16 18
-16 12 0 -23 37 -44 74 -42 34 3 37 5 34 33 -2 24 -8 30 -28 32 -25 3 -25 3
-2 -7z"/>
</g>
</svg>
